<svg width="392.186" height="392.186" xmlns="http://www.w3.org/2000/svg">

 <g>
  <title>background</title>
  <rect fill="none" id="canvas_background" height="402" width="582" y="-1" x="-1"/>
 </g>
 <g>
  <title>Layer 1</title>
  <g id="svg_1">
   <g id="svg_2">
    <g id="svg_3">
     <path fill="#0052a4" id="svg_4" d="m368.62,17.951l-345.052,0c-12.998,0 -23.568,10.573 -23.568,23.569l0,309.146c0,12.996 10.57,23.568 23.568,23.568l345.053,0c12.994,0 23.564,-10.572 23.564,-23.568l0,-309.146c0.003,-12.995 -10.571,-23.569 -23.565,-23.569zm-71.06,39.577c0,-4.806 3.896,-8.703 8.701,-8.703l8.703,0c4.808,0 8.701,3.896 8.701,8.703l0,9.863c0,4.806 -3.896,8.702 -8.701,8.702l-8.703,0c-4.805,0 -8.701,-3.896 -8.701,-8.702l0,-9.863zm-40.467,0c0,-4.806 3.898,-8.703 8.703,-8.703l8.701,0c4.805,0 8.703,3.896 8.703,8.703l0,9.863c0,4.806 -3.898,8.702 -8.703,8.702l-8.701,0c-4.805,0 -8.703,-3.896 -8.703,-8.702l0,-9.863zm106.81,288.423l-335.621,0l0,-243.716l335.621,0l0,243.716l0,0zm0.229,-278.56c0,4.806 -3.896,8.702 -8.701,8.702l-8.703,0c-4.809,0 -8.702,-3.896 -8.702,-8.702l0,-9.863c0,-4.806 3.896,-8.703 8.702,-8.703l8.703,0c4.806,0 8.701,3.896 8.701,8.703l0,9.863z"/>
     <path fill="#0052a4" id="svg_5" d="m84.185,233.284l63.084,29.336c1.631,0.755 3.367,1.138 5.162,1.138c2.338,0 4.617,-0.664 6.598,-1.924c3.547,-2.267 5.666,-6.13 5.666,-10.334l0,-0.322c0,-4.752 -2.785,-9.116 -7.096,-11.118l-39.455,-18.332l39.455,-18.334c4.311,-2.004 7.096,-6.367 7.096,-11.117l0,-0.319c0,-4.21 -2.119,-8.075 -5.666,-10.334c-1.961,-1.253 -4.246,-1.916 -6.605,-1.916c-1.779,0 -3.563,0.391 -5.16,1.133l-63.08,29.333c-4.307,2.004 -7.09,6.369 -7.09,11.117l0,0.877c-0.001,4.741 2.78,9.104 7.091,11.116z"/>
     <path fill="#0052a4" id="svg_6" d="m165.257,293.036c2.301,3.149 6.002,5.03 9.9,5.03l0.316,0c5.352,0 10.041,-3.426 11.672,-8.517l41.555,-128.761c1.192,-3.716 0.531,-7.818 -1.771,-10.973c-2.301,-3.15 -6.002,-5.03 -9.901,-5.03l-0.315,0c-5.354,0 -10.048,3.425 -11.679,8.516l-41.559,128.771c-1.183,3.721 -0.517,7.817 1.782,10.964z"/>
     <path fill="#0052a4" id="svg_7" d="m227.49,192.276c0,4.745 2.783,9.109 7.095,11.123l39.455,18.329l-39.455,18.33c-4.31,2.004 -7.095,6.368 -7.095,11.118l0,0.322c0,4.205 2.117,8.068 5.668,10.336c1.974,1.258 4.254,1.924 6.595,1.924c1.793,0 3.528,-0.383 5.17,-1.142l63.08,-29.335c4.307,-2.009 7.09,-6.372 7.09,-11.115l0,-0.877c0,-4.748 -2.783,-9.113 -7.094,-11.117l-63.08,-29.333c-1.591,-0.74 -3.373,-1.131 -5.152,-1.131c-2.355,0 -4.643,0.661 -6.604,1.912c-3.551,2.263 -5.67,6.127 -5.67,10.337l0,0.318l-0.003,0l0,0.001z"/>
    </g>
   </g>
  </g>
  <g id="svg_8"/>
  <g id="svg_9"/>
  <g id="svg_10"/>
  <g id="svg_11"/>
  <g id="svg_12"/>
  <g id="svg_13"/>
  <g id="svg_14"/>
  <g id="svg_15"/>
  <g id="svg_16"/>
  <g id="svg_17"/>
  <g id="svg_18"/>
  <g id="svg_19"/>
  <g id="svg_20"/>
  <g id="svg_21"/>
  <g id="svg_22"/>
 </g>
</svg>